<?xml version="1.0" encoding="utf-8"?>
<!-- Generator: Adobe Illustrator 25.2.1, SVG Export Plug-In . SVG Version: 6.00 Build 0)  -->
<svg version="1.1" id="Camada_1" xmlns="http://www.w3.org/2000/svg" xmlns:xlink="http://www.w3.org/1999/xlink" x="0px" y="0px"
	 viewBox="0 0 566.9 566.9" style="enable-background:new 0 0 566.9 566.9;" xml:space="preserve">
<style type="text/css">
	.st0{fill:#1D1D1B;}
	.st1{fill:#624695;}
	.st2{fill:#E9561C;}
	.st3{fill:#38B6B4;}
	.st4{fill:#E6227F;}
	.st5{fill:#3A75B9;}
	.st6{fill:#FFFFFF;}
</style>
<path class="st3" d="M374.4,277.4c5.6-7.4,11.4-18.3,12.4-32.4c1.5-20.7-4.4-35.6-9.7-44.4c0.9-9.5,0.2-23.9-7.5-40.7
	c-4.2-9.2-9.1-16.1-13.4-21l0.6-3.4l2.7-15.2L319.5,101l-42.9,6l-3.1,9.3l-32.8,13.6l2.6,6.6c-1.2-0.1-2.4-0.1-3.6-0.1
	c-2.3,0-4.7,0.2-7.1,0.5c-11.2,1.5-22.8,8.2-34.6,19.8c-9.5,9.4-18.3,21.4-24.6,33.8c-11.2,21.8-14.4,45.3-15.4,57.6
	c-8.2,9.9-19.9,29.6-17.6,59.7c2.4,31.2,25,68.7,57.5,95.4c54.1,44.5,95.9,49.4,100.5,49.8l6.1,0.5l5.4-2.9
	c2.1-1.1,51.1-27.9,66-90.8C384.7,323.1,379.4,293.7,374.4,277.4z M359.3,354c-13.6,55.4-58.2,78.6-58.2,78.6s-16.6-1.4-42.6-13.7
	c-8.7-5.2-23.7-15.4-41.9-33c-15.4-14.9-23.8-28.2-28.3-38c-3.3,0.9-2.4,0.7-5.7,1.5c0.5,4.9,1.5,10.2,3.2,16.2
	c-18.1-20.8-28.7-43.4-30.1-61.2c-1.9-23.4,7.1-38.8,13.3-45.5c4-4.4,9.6-5.3,9.6-5.3s-4.9-7.2-2.4-23.1c2-10.2,5.4-22.4,11.5-33.9
	c9.8-18.5,25.8-35.7,39.2-41.4c0.8-0.3,13.6-7.4,25.8,1.2c6,4.3,9.7,12,9.7,12l8-11.1c0,0-5.9-19.4-5.9-19.4l11.9-4.8l5.1,12.6
	l2.8-1l8.1-23.4l18.3-2.5l0.5,13.8l3.7,0.3l7.8-12.9l16.5,7.7l-2.6,14.3c0,0,10.1,6.8,17.5,22.6c4.4,9.3,5.9,17.5,6.2,23.9l0.8,17.8
	c2.9,6.4,10.1,22.2,9.1,34.6c-0.6,7.5-3.2,13.7-6.3,18.5c-3.1,3.9-10.2,10.6-22.9,12.8c-3.2,0.5-6.1,0.9-8.8,1.2
	c-0.4,3.5-0.3,2.9-0.8,6.4c7.2,2.6,17.1,4.7,26.8,1.7C362.5,295.3,367.4,321.1,359.3,354z"/>
<path class="st4" d="M131.6,220.2l16.3-6.3c-1.9-3.8-4.4-9.3-7.4-16.6c-1.3-3.1-2.5-6.1-3.8-9.2c-1.3-3.1-2.4-6.1-3.3-9
	c8.1-2.8,20.6-5.4,37.6-7.8l-4-16.8c-20.6,1.9-36.2,4.6-46.9,8.1l-8.8,14C116.4,191,123.1,205.5,131.6,220.2z"/>
<path class="st4" d="M425.3,373c2.4,3.4,5.5,8.4,9.5,15.1c1.7,2.8,3.3,5.6,5,8.4c1.7,2.8,3.2,5.5,4.5,8.2
	c-7.5,3.8-19.2,8.1-35.3,12.9l6.2,15.7c19.7-4.8,34.5-9.6,44.3-14.5l6.5-14.8c-6.9-13.3-15.5-26.4-25.8-39.5L425.3,373z"/>
<path class="st4" d="M340.2,471.4l22.2-2c8.4-14.8,16.3-29.2,23.6-43.1c21-38.8,57.3-121.1,57.3-121.1l-12.5-22.6
	c-13.7,33.7-28.5,66.6-44.3,98.5C377.7,399.5,359.2,437.8,340.2,471.4z"/>
<path class="st3" d="M259.1,139.4c0,0,6.5,3.7,8.1,7c3.9,7.9,4.3,15.8,3.6,21.9l-8.3,0c-2.7-5.7-6.5-11.2-12-15.9
	c-2.3-2,9.9-6.5,9.9-6.5L259.1,139.4z"/>
<path class="st3" d="M183,334.3c0,0,2.7,9.4,9.9,22.2c7.2,12.9,3.3,13.2,3.3,13.2l-12.4-12.6C183.8,357.1,180.3,342.7,183,334.3z"/>
<path class="st3" d="M221,177.4c1.8,2.1,2.7,3.2,2.7,3.3l-2,10.3c-2.6,2.2-3.9,3.3-4,3.3h-6.9l-2,10.2h-6.8l5.3-27.2H221z
	 M212.2,187.6h3.4l0.7-3.4h-3.4L212.2,187.6z"/>
<path class="st3" d="M234.2,177.5l-4,20.4h3.6l4-20.4h6.8l-4.6,23.7c-2.7,2.3-4,3.4-4.1,3.4h-10.2c-1.9-2.2-2.8-3.3-2.8-3.4
	l4.6-23.7H234.2z"/>
<path class="st3" d="M255.7,177.4c2,6.6,3.1,10,3.2,10.1l0-0.1c4.6-6.6,6.9-9.9,7.1-10h6.6l-5.3,27.2h-6.8l2-10.1h-0.1
	c0,0.1-2.3,3.4-6.9,10h-0.1c-1.6-5.5-2.7-8.8-3.2-10l-2,10.1h-6.8l5.3-27.2H255.7z"/>
<path class="st3" d="M290.4,177.4c1.8,2.1,2.7,3.2,2.7,3.3l-2,10.3c-2.6,2.2-3.9,3.3-4,3.3h-6.9l-2,10.2h-6.8l5.3-27.2H290.4z
	 M281.6,187.6h3.4l0.7-3.4h-3.4L281.6,187.6z"/>
<path class="st3" d="M304.6,177.4l-5.3,27.2h-7.1l5.6-27.2H304.6z"/>
<path class="st3" d="M315.1,177.4c2.4,6.8,3.9,10.7,4.4,11.9l2.3-11.9h6.8l-5.3,27.2h-6.9c-2.6-7.3-4.1-11.3-4.5-11.8l-2.3,11.8H303
	l5.3-27.2H315.1z"/>
<path class="st3" d="M335.3,177.5h10.2c1.9,2.2,2.8,3.3,2.8,3.4l-1.3,6.6h-6.8l0.6-3.3h-3.6l-2.7,13.6h3.6l0.4-1.8h-1.7l1.3-6.6h8.5
	l-2.3,11.8c-2.7,2.3-4,3.4-4.1,3.4H330c-1.9-2.2-2.8-3.3-2.8-3.4l3.9-20.3C333.8,178.7,335.2,177.5,335.3,177.5z"/>
<path class="st3" d="M212.3,210.8h36.3c6.4,7.5,9.5,11.4,9.5,11.7l-4.6,23.9h-23.9l2.3-11.7h-12.1l-9.3,48.1h12.1l2.3-11.7h23.9
	l-4.6,23.8c-9,7.8-13.7,11.7-14,11.7h-36.3c-6.4-7.5-9.5-11.4-9.4-11.7l14.1-72.3C207.3,214.7,212,210.8,212.3,210.8z"/>
<path class="st3" d="M281,210.4h36.3c6.4,7.5,9.6,11.4,9.5,11.7l-14.1,72.3c-9,7.8-13.7,11.7-14,11.7h-36.3
	c-6.4-7.5-9.5-11.4-9.4-11.7l14.1-72.3C276,214.4,280.7,210.4,281,210.4z M279.1,282.4h12.1l9.3-48.1h-12.1L279.1,282.4z"/>
<path class="st3" d="M275.4,312.9c6.4,7.5,9.5,11.4,9.5,11.7l-14.1,72.3c-9,7.8-13.7,11.7-14,11.7h-48l18.6-95.8H275.4z
	 M237.2,384.8h12.1l9.3-48.1h-12.1L237.2,384.8z"/>
<path class="st3" d="M355.9,312.9l-4.6,23.9h-36.8l-2.4,12.1h28.3l-4.6,23.8h-28.3l-2.4,12.1H342l-4.6,23.8h-60.6l18.6-95.8H355.9z"
	/>
</svg>
